<svg width="10" height="16" viewBox="0 0 10 16" fill="none" xmlns="http://www.w3.org/2000/svg">
<path d="M5.83301 6.50033H9.58301L9.16634 8.16699H5.83301V15.667H4.16634V8.16699H0.833008V6.50033H4.16634V4.94013C4.16634 3.45427 4.32109 2.91546 4.61159 2.37225C4.90209 1.82904 5.32842 1.40273 5.87159 1.11222C6.41484 0.821701 6.95359 0.666992 8.43951 0.666992C8.87451 0.666992 9.25567 0.708659 9.58301 0.791992V2.33366H8.43951C7.33642 2.33366 7.00051 2.39853 6.65759 2.5819C6.40484 2.71708 6.21642 2.90548 6.08126 3.15825C5.89784 3.50113 5.83301 3.83705 5.83301 4.94013V6.50033Z" fill="white"/>
</svg>