<svg width="18" height="18" viewBox="0 0 18 18" fill="none" xmlns="http://www.w3.org/2000/svg">
<path d="M9.00132 6.50033C7.62015 6.50033 6.5013 7.61958 6.5013 9.00033C6.5013 10.3814 7.62057 11.5003 9.00132 11.5003C10.3824 11.5003 11.5013 10.3811 11.5013 9.00033C11.5013 7.61924 10.3821 6.50033 9.00132 6.50033ZM9.00132 4.83366C11.3017 4.83366 13.168 6.69791 13.168 9.00033C13.168 11.3007 11.3037 13.167 9.00132 13.167C6.70091 13.167 4.83464 11.3027 4.83464 9.00033C4.83464 6.69993 6.69889 4.83366 9.00132 4.83366ZM14.418 4.62462C14.418 5.19971 13.9507 5.6663 13.3763 5.6663C12.8012 5.6663 12.3347 5.19899 12.3347 4.62462C12.3347 4.05024 12.8019 3.58366 13.3763 3.58366C13.9499 3.58293 14.418 4.05024 14.418 4.62462ZM9.00132 2.33366C6.93924 2.33366 6.60314 2.33912 5.64404 2.38183C4.99061 2.4125 4.55259 2.50038 4.14562 2.65838C3.78395 2.79865 3.52306 2.96614 3.24509 3.24412C2.96604 3.52316 2.79885 3.78335 2.65915 4.14518C2.50079 4.55309 2.41293 4.99042 2.3828 5.64295C2.33968 6.56299 2.33464 6.88453 2.33464 9.00033C2.33464 11.0624 2.34009 11.3985 2.38279 12.3575C2.41349 13.0107 2.50149 13.4493 2.6591 13.8553C2.79974 14.2175 2.96757 14.479 3.2442 14.7557C3.52434 15.0354 3.78531 15.2032 4.14371 15.3415C4.55564 15.5007 4.99339 15.5887 5.64392 15.6188C6.56397 15.6619 6.88551 15.667 9.00132 15.667C11.0634 15.667 11.3995 15.6615 12.3585 15.6188C13.0102 15.5882 13.4492 15.5 13.8563 15.3425C14.2175 15.2022 14.4798 15.0338 14.7567 14.7574C15.0368 14.4768 15.2042 14.2165 15.3427 13.8572C15.5016 13.4468 15.5897 13.0085 15.6198 12.3577C15.6629 11.4377 15.668 11.1161 15.668 9.00033C15.668 6.93826 15.6625 6.60217 15.6198 5.64313C15.5892 4.99121 15.5009 4.55157 15.3432 4.14464C15.2033 3.78398 15.0352 3.52228 14.7575 3.24412C14.478 2.96462 14.2185 2.79777 13.8564 2.65818C13.4488 2.49994 13.0108 2.41196 12.3587 2.38183C11.4387 2.3387 11.1171 2.33366 9.00132 2.33366ZM9.00132 0.666992C11.2652 0.666992 11.5478 0.675325 12.4367 0.716992C13.3235 0.757967 13.9284 0.898242 14.4597 1.10449C15.0089 1.3163 15.4728 1.60241 15.936 2.0656C16.3985 2.5288 16.6847 2.99408 16.8972 3.54199C17.1027 4.07255 17.243 4.6781 17.2847 5.56491C17.3242 6.4538 17.3347 6.73643 17.3347 9.00033C17.3347 11.2642 17.3263 11.5468 17.2847 12.4357C17.2437 13.3226 17.1027 13.9274 16.8972 14.4587C16.6853 15.008 16.3985 15.4718 15.936 15.9351C15.4728 16.3976 15.0068 16.6837 14.4597 16.8962C13.9284 17.1017 13.3235 17.242 12.4367 17.2837C11.5478 17.3232 11.2652 17.3337 9.00132 17.3337C6.73741 17.3337 6.45477 17.3253 5.56589 17.2837C4.67908 17.2427 4.07491 17.1017 3.54297 16.8962C2.99435 16.6843 2.52977 16.3976 2.06658 15.9351C1.60339 15.4718 1.31797 15.0059 1.10547 14.4587C0.899219 13.9274 0.759636 13.3226 0.717969 12.4357C0.678386 11.5468 0.667969 11.2642 0.667969 9.00033C0.667969 6.73643 0.676302 6.4538 0.717969 5.56491C0.758936 4.67741 0.899219 4.07324 1.10547 3.54199C1.31727 2.99338 1.60339 2.5288 2.06658 2.0656C2.52977 1.60241 2.99505 1.31699 3.54297 1.10449C4.07422 0.898242 4.67839 0.758659 5.56589 0.716992C6.45477 0.677409 6.73741 0.666992 9.00132 0.666992Z" fill="white"/>
</svg>
