<svg width="704" height="70" viewBox="0 0 704 70" fill="none" xmlns="http://www.w3.org/2000/svg">
<path d="M66.2206 46.9319C66.2206 54.3246 66.8902 59.0951 68.6105 64.4793H54.9502C56.7449 59.1788 57.34 54.4734 57.34 46.9319V19.602L36.2125 45.7323L15.2339 19.8252V46.9226C15.2339 54.3154 15.9034 59.0858 17.6237 64.47H3.96342C5.75813 59.1695 6.35328 54.4642 6.35328 46.9226V9.89378C4.48417 7.50392 2.46629 5.41162 0.383301 3.5425V3.31934H13.8948C15.1688 6.37873 16.5823 8.69417 19.8648 12.6556L36.2869 32.9647L54.5782 10.2657C56.5961 7.80146 58.0839 5.48602 59.1347 3.31934H70.8515V3.5425C68.9824 5.85797 67.7178 8.02467 67.1227 9.95888C66.5275 11.9024 66.2299 14.5154 66.2299 17.8723V46.9133L66.2206 46.9319Z" fill="white"/>
<path d="M140.12 64.4705H125.26C125.409 63.9497 125.483 63.2802 125.483 62.4525C125.483 59.7651 124.739 56.7801 122.424 51.7772L119.513 45.054H96.5908L93.3083 52.0004C91.216 56.3338 90.1745 59.8395 90.1745 62.4525C90.1745 63.1221 90.2488 63.7916 90.3232 64.4705H75.6865V64.2473C78.4483 60.8904 81.359 56.185 84.4184 50.1406L108.754 1.84131H108.977L131.676 50.3638C134.364 56.3338 136.53 59.7745 140.11 64.2473V64.4705H140.12ZM99.9571 38.0425H116.379L108.466 19.9744L99.9571 38.0425Z" fill="white"/>
<path d="M198.349 64.47H182.448C181.853 61.5593 179.165 56.854 175.576 52.3719L158.484 31.3188V46.9226C158.484 54.3154 159.154 59.0858 160.874 64.47H147.214C148.934 59.0951 149.604 54.3154 149.604 46.9226V20.8667C149.604 13.4739 148.934 8.69419 147.214 3.31934H160.874C159.154 8.69419 158.484 13.4739 158.484 20.8667V30.4261L173.865 11.9861C176.552 8.77789 177.445 6.61118 177.743 3.32862H194.621V3.62619C189.246 7.73638 184.392 12.2836 180.058 17.4353L169.085 30.5749L187.451 53.1995C191.561 58.0536 195.141 61.7081 198.349 64.1724V64.47Z" fill="white"/>
<path d="M262.998 64.4705H248.138C248.287 63.9497 248.361 63.2802 248.361 62.4525C248.361 59.7651 247.617 56.7801 245.302 51.7772L242.391 45.054H219.469L216.187 52.0004C214.094 56.3338 213.053 59.8395 213.053 62.4525C213.053 63.1221 213.127 63.7916 213.202 64.4705H198.565V64.2473C201.327 60.8904 204.237 56.185 207.297 50.1406L231.632 1.84131H231.856L254.555 50.3638C257.242 56.3338 259.409 59.7745 262.989 64.2473V64.4705H262.998ZM222.835 38.0425H239.258L231.344 19.9744L222.835 38.0425Z" fill="white"/>
<path d="M284.71 64.47H270.074C271.794 59.0951 272.464 54.3154 272.464 46.9226V20.8667C272.464 13.4739 271.794 8.69419 270.074 3.31934H284.562C295.758 3.31934 303.374 9.81006 303.374 18.7C303.374 23.7772 300.314 28.4082 295.014 31.6908C302.778 36.2473 306.359 40.9526 306.359 47.5921C306.359 57.5235 296.576 64.4606 284.71 64.4606V64.47ZM281.353 31.542C289.341 30.0448 294.195 24.8188 294.195 19.1464C294.195 13.0276 288.821 8.47099 281.353 8.47099V31.542ZM281.353 32.7323V59.3089C291.285 59.3089 296.957 54.3061 296.957 47.5921C296.957 40.8782 290.541 34.2294 281.353 32.7323Z" fill="white"/>
<path d="M320.996 20.876C320.996 13.4832 320.326 8.70347 318.606 3.32861H332.266C330.546 8.70347 329.876 13.4832 329.876 20.876V46.9319C329.876 54.3246 330.546 59.0951 332.266 64.4793H318.606C320.326 59.1044 320.996 54.3246 320.996 46.9319V20.876Z" fill="white"/>
<path d="M446.561 59.3182L437.224 65.065C431.626 63.9491 424.382 59.095 417.436 52.1486C411.085 60.4341 402.204 65.065 391.529 65.065C376.074 65.065 367.491 57.5979 367.491 46.4018C367.491 39.1579 370.996 34.0806 379.431 30.1285C374.949 27.5154 372.708 23.4052 372.708 17.7328C372.708 9.67053 379.654 2.72412 388.683 2.72412C397.192 2.72412 403.766 7.87578 403.766 16.8308C403.766 21.6105 401.525 25.5626 397.573 28.3245C404.296 30.7143 410.341 34.1456 415.79 38.7022C418.403 32.3509 419.668 25.1907 419.668 17.054C419.668 14.8129 419.593 12.795 419.445 11.0096C417.501 11.0096 415.483 11.1584 413.326 11.456C411.234 11.6791 409.671 11.9767 408.695 12.3486V3.31927H440.87L440.795 13.0275C437.438 11.7535 432.212 11.0096 427.656 11.0096H427.358C427.581 13.3995 427.656 15.4174 427.656 16.9796C427.656 27.5061 425.786 36.6843 421.983 44.6815C431.171 52.9669 439.456 57.3003 446.551 59.0114V59.3089L446.561 59.3182ZM386.982 33.411C379.886 36.6192 377.05 40.1342 377.05 45.4347C377.05 51.7766 382.648 56.482 391.836 56.482C399.898 56.482 406.621 52.9762 411.401 46.4762C405.431 40.5806 397.369 36.6192 386.991 33.411H386.982ZM388.851 26.1671C393.333 24.298 395.723 21.2386 395.723 17.4352C395.723 13.6319 392.812 10.712 388.404 10.712C383.997 10.712 380.863 13.8458 380.863 17.7328C380.863 21.6198 382.955 24.1492 388.851 26.1671Z" fill="white"/>
<path d="M478.056 50.4377H478.354C480.967 53.4227 483.208 55.515 485.151 56.6309C487.095 57.7467 489.336 58.3512 491.875 58.3512C497.249 58.3512 501.434 54.4641 501.434 49.3218C501.434 44.914 499.044 42.3754 489.782 37.1493C485.375 34.6851 482.241 32.1464 480.372 29.5334C478.577 26.9204 477.684 23.7122 477.684 19.9739C477.535 11.2421 485.523 2.35223 496.273 2.57541C500.458 2.57541 504.335 3.46813 507.925 5.26285V14.5247L507.702 14.5991C503.591 11.019 500.383 9.81938 496.273 9.81938C490.377 9.81938 486.714 13.9295 486.714 18.4024C486.714 22.8752 489.475 26.3159 497.761 30.8725C507.543 36.3961 510.9 39.8274 511.124 47.8246C511.124 58.7231 502.159 65.2232 490.963 65.2232C486.184 65.2232 481.859 64.4049 478.047 62.8333V50.4377H478.056Z" fill="white"/>
<path d="M554.346 65.222C535.683 65.5939 522.543 49.9901 522.841 33.9399C522.543 17.0621 537.18 2.21154 554.644 2.5835C571.968 2.36032 586.893 15.3511 586.595 33.4936C586.967 51.6361 572.191 65.5195 554.346 65.222ZM556.141 58.7219C568.313 58.7219 576.822 48.4929 576.822 35.7253C577.045 21.6187 565.923 8.70229 552.858 9.07425C541.885 9.07425 532.698 18.2617 532.698 31.922C532.475 45.9636 542.48 59.0195 556.141 58.7219Z" fill="white"/>
<path d="M654.609 44.5421C654.609 53.4227 655.055 59.0207 656.255 64.4793H644.985C644.241 62.3126 642.595 59.5508 639.982 56.3426L612.057 20.9503V44.5421C612.057 49.0242 612.205 52.6787 612.577 55.5893C612.949 58.4999 613.544 61.4106 614.447 64.47H600.786C601.679 61.4106 602.283 58.4256 602.655 55.515C603.027 52.6043 603.176 48.9405 603.176 44.5421V11.6141C600.563 8.33151 598.619 6.31362 595.56 3.62619V3.32861H610.643C611.313 4.90015 612.066 6.388 613.033 7.88515C614 9.38229 615.497 11.3909 617.515 13.8552L645.738 49.6193V23.2658C645.738 18.8581 645.589 15.2035 645.217 12.2929C644.845 9.38229 644.25 6.39731 643.348 3.33792H657.008C656.115 6.39731 655.511 9.30793 655.139 12.2185C654.767 15.1291 654.618 18.793 654.618 23.2658V44.5421H654.609Z" fill="white"/>
<path d="M670.203 50.4377H670.501C673.114 53.4227 675.355 55.515 677.298 56.6309C679.242 57.7467 681.483 58.3512 684.022 58.3512C689.396 58.3512 693.581 54.4641 693.581 49.3218C693.581 44.914 691.191 42.3754 681.929 37.1493C677.521 34.6851 674.388 32.1464 672.519 29.5334C670.724 26.9204 669.831 23.7122 669.831 19.9739C669.682 11.2421 677.67 2.35223 688.42 2.57541C692.605 2.57541 696.482 3.46813 700.072 5.26285V14.5247L699.849 14.5991C695.738 11.019 692.53 9.81938 688.42 9.81938C682.524 9.81938 678.86 13.9295 678.86 18.4024C678.86 22.8752 681.622 26.3159 689.908 30.8725C699.69 36.3961 703.047 39.8274 703.271 47.8246C703.271 58.7231 694.306 65.2232 683.11 65.2232C678.331 65.2232 674.006 64.4049 670.194 62.8333V50.4377H670.203Z" fill="white"/>
</svg>
